<!DOCTYPE svg PUBLIC "-//W3C//DTD SVG 1.1//EN" "http://www.w3.org/Graphics/SVG/1.1/DTD/svg11.dtd">

<!-- Uploaded to: SVG Repo, www.svgrepo.com, Transformed by: SVG Repo Mixer Tools -->
<svg fill="#6A5ACD" width="800px" height="800px" viewBox="0 0 24 24" id="bathtub-2" data-name="Line Color" xmlns="http://www.w3.org/2000/svg" class="icon line-color">

<g id="SVGRepo_bgCarrier" stroke-width="0"/>

<g id="SVGRepo_tracerCarrier" stroke-linecap="round" stroke-linejoin="round"/>

<g id="SVGRepo_iconCarrier">

<path id="secondary" d="M11,6h0A3,3,0,0,0,8,3H8A3,3,0,0,0,5,6v7" style="fill: none; stroke: #6A5ACD; stroke-linecap: round; stroke-linejoin: round; stroke-width: 2;"/>

<path id="secondary-2" data-name="secondary" d="M13,8a2,2,0,0,0-2-2h0A2,2,0,0,0,9,8Z" style="fill: none; stroke: #6A5ACD; stroke-linecap: round; stroke-linejoin: round; stroke-width: 2;"/>

<path id="secondary-3" data-name="secondary" d="M17.5,19l.5,2M6.5,19,6,21" style="fill: none; stroke: #6A5ACD; stroke-linecap: round; stroke-linejoin: round; stroke-width: 2;"/>

<path id="primary" d="M3,13H21m-1,2V13H4v2a4,4,0,0,0,4,4h8A4,4,0,0,0,20,15Z" style="fill: none; stroke: #6A5ACD; fill: #6A5ACD; stroke-linecap: round; stroke-linejoin: round; stroke-width: 2;"/>

</g>

</svg>