<?xml version="1.0" standalone="no"?>
<!DOCTYPE svg PUBLIC "-//W3C//DTD SVG 20010904//EN"
 "http://www.w3.org/TR/2001/REC-SVG-20010904/DTD/svg10.dtd">
<svg version="1.0"
        xmlns="http://www.w3.org/2000/svg" width="150px" height="60px" viewBox="0 0 2000.000000 1024.000000" preserveAspectRatio="xMidYMid meet">
        <circle cx="500" cy="522" r="396"  fill="#CCCCFF" />
        <g transform="translate(0.000000,1024.000000) scale(0.100000,-0.100000)" fill="#6A5ACD" stroke="none">
                <path d="M4805 9033 c-613 -23 -1067 -129 -1575 -367 -464 -217 -881 -506
-1215 -841 -577 -578 -997 -1445 -1099 -2270 -34 -275 -38 -361 -33 -630 7
-315 8 -334 48 -565 50 -291 107 -495 214 -765 405 -1021 1233 -1857 2271
-2294 266 -111 524 -185 829 -235 288 -47 328 -50 680 -50 291 0 363 3 501 22
558 75 1034 235 1494 502 354 205 578 378 866 664 639 638 1041 1423 1170
2286 21 144 30 610 15 810 -66 870 -384 1659 -943 2338 -271 329 -617 614
-1038 854 -139 79 -458 228 -595 278 -374 136 -644 200 -995 239 -118 14 -420
31 -480 29 -25 -1 -76 -3 -115 -5z m419 -210 c98 -118 388 -413 406 -413 9 0
22 6 28 13 16 19 4 34 -182 235 -154 167 -182 199 -174 207 1 2 55 -4 118 -12
l115 -16 40 -50 c22 -28 72 -87 110 -133 39 -45 115 -139 170 -207 55 -69 105
-126 112 -126 13 -1 43 26 43 39 0 8 -48 71 -258 340 -45 57 -82 107 -82 111
0 8 117 -14 199 -37 l60 -16 107 -187 c59 -102 117 -204 130 -227 13 -22 29
-46 37 -52 17 -14 43 -7 51 14 3 8 -35 86 -83 173 -107 190 -134 242 -128 247
6 6 180 -55 194 -69 7 -7 52 -111 100 -232 82 -205 90 -220 113 -220 38 0 36
29 -8 146 -72 192 -95 259 -89 265 3 3 40 -10 84 -29 l78 -34 36 -138 c20 -75
42 -141 49 -145 20 -12 50 7 50 31 0 11 -9 57 -21 101 -11 44 -19 87 -17 94 4
19 162 -56 176 -83 6 -10 16 -47 22 -83 14 -78 6 -112 -61 -260 -81 -180 -94
-235 -93 -387 0 -73 -2 -133 -6 -133 -4 0 -15 30 -24 68 -40 166 -132 297
-281 401 -44 31 -112 86 -151 124 -77 73 -114 86 -114 42 0 -33 20 -73 78
-154 67 -95 83 -146 93 -294 7 -101 15 -148 38 -215 17 -47 29 -88 27 -90 -2
-2 -25 29 -50 67 -81 122 -152 168 -309 202 -49 11 -104 26 -122 33 -47 20
-106 84 -138 150 -20 40 -33 56 -47 56 -17 0 -20 -7 -20 -43 0 -53 23 -145 50
-197 11 -22 52 -70 91 -108 43 -41 93 -104 129 -162 32 -52 86 -122 119 -155
64 -62 80 -90 34 -57 -91 64 -183 94 -377 122 -175 26 -225 40 -306 90 -119
72 -128 76 -145 59 -14 -14 -12 -20 13 -55 45 -61 111 -122 177 -161 94 -57
132 -90 181 -159 78 -109 150 -163 267 -200 70 -22 74 -37 8 -28 -57 7 -184
-8 -296 -37 -170 -43 -297 -34 -434 31 -92 44 -121 39 -85 -15 28 -43 118
-103 209 -141 50 -20 127 -61 173 -91 135 -87 262 -117 391 -93 34 6 65 9 68
6 3 -2 -15 -14 -39 -27 -23 -12 -91 -55 -151 -95 -153 -105 -205 -128 -389
-174 -160 -40 -241 -72 -285 -113 -26 -23 -29 -40 -10 -55 8 -7 27 -3 64 14
113 54 225 64 456 39 192 -20 316 -3 423 60 25 15 49 24 52 20 4 -4 -1 -11
-11 -17 -37 -20 -198 -161 -242 -211 -25 -29 -82 -105 -126 -169 -43 -64 -91
-125 -106 -136 -16 -11 -73 -43 -128 -72 -173 -92 -225 -129 -225 -161 0 -10
9 -23 19 -29 16 -8 28 -3 66 30 60 52 64 54 172 78 124 29 168 51 255 131 92
83 119 100 251 154 69 29 128 62 170 96 36 28 68 51 71 51 3 0 -20 -33 -53
-72 -85 -106 -120 -181 -140 -308 -6 -36 -11 -91 -11 -122 0 -91 -34 -179 -97
-249 -29 -33 -53 -64 -53 -70 0 -21 34 -21 83 2 84 39 144 108 210 242 55 111
63 121 130 175 78 62 159 139 195 187 31 41 28 28 -17 -64 -70 -144 -76 -256
-25 -452 33 -130 31 -217 -9 -296 -48 -93 -27 -111 48 -42 66 61 103 144 126
284 21 126 33 154 107 268 53 80 61 100 90 197 l20 65 -5 -120 c-7 -142 8
-213 64 -314 118 -215 129 -257 98 -396 -9 -42 -14 -79 -11 -82 20 -20 84 58
117 146 24 63 30 190 15 321 -8 68 -5 88 24 204 25 102 31 145 28 202 -4 83 2
83 27 4 25 -77 71 -168 112 -217 18 -23 85 -76 149 -118 131 -86 165 -128 183
-226 10 -58 9 -62 -24 -122 -108 -198 -107 -429 2 -625 19 -35 33 -66 30 -68
-7 -7 -100 17 -114 30 -15 14 -56 204 -83 381 -70 470 -78 496 -125 448 -13
-12 -15 -26 -11 -56 4 -22 27 -189 51 -371 25 -182 47 -345 51 -362 l6 -30
-84 9 c-182 19 -542 -21 -665 -73 -13 -5 -23 -6 -23 -3 0 4 31 143 70 309 89
384 88 379 62 393 -16 8 -24 8 -35 -3 -7 -8 -46 -142 -85 -298 -116 -459 -108
-434 -150 -452 -21 -8 -74 -30 -119 -49 -46 -20 -83 -32 -83 -29 0 4 38 117
85 251 47 134 85 254 85 266 0 24 -29 38 -50 25 -10 -6 -193 -445 -236 -565
-13 -37 -21 -43 -100 -79 -68 -29 -94 -36 -120 -31 -19 3 -34 7 -34 9 0 2 73
156 163 342 204 425 214 448 197 469 -28 34 -47 20 -95 -70 -46 -84 -100 -182
-125 -225 -14 -25 -75 -138 -136 -253 -60 -114 -116 -216 -124 -227 l-16 -21
-69 22 c-39 11 -73 24 -78 28 -4 4 44 93 106 197 63 104 127 213 143 242 28
51 28 54 10 67 -23 17 -50 6 -67 -28 -43 -81 -284 -447 -294 -447 -7 0 -43 13
-80 30 l-66 30 47 67 c26 38 64 91 84 118 57 77 302 425 331 470 48 74 51 82
33 99 -38 39 -51 25 -377 -410 -74 -99 -157 -204 -184 -234 l-49 -53 -63 44
c-35 24 -65 49 -68 56 -3 7 100 131 229 275 380 428 391 444 345 472 -16 10
-36 -7 -150 -127 -73 -76 -222 -231 -332 -346 l-200 -208 -45 35 c-25 20 -60
49 -77 65 l-33 31 195 189 c107 104 195 195 195 202 0 24 -30 46 -48 36 -9 -6
-100 -80 -202 -166 -102 -86 -195 -162 -208 -168 -20 -9 -28 -5 -72 38 -28 27
-50 52 -50 56 0 3 62 55 138 116 398 319 472 382 472 404 0 22 -35 43 -53 32
-15 -9 -268 -198 -476 -356 -85 -64 -157 -117 -161 -117 -8 0 -100 96 -100
104 0 3 136 107 303 232 263 197 302 230 302 253 0 52 -39 38 -195 -68 -80
-55 -223 -152 -319 -217 l-174 -118 -59 63 c-32 35 -58 66 -58 70 0 4 87 61
193 126 407 251 441 277 405 313 -22 22 10 39 -536 -277 l-143 -82 -47 39
c-26 22 -56 50 -67 62 -11 13 -74 70 -140 126 -195 169 -191 164 -293 341 -22
37 -88 151 -147 253 -111 191 -130 233 -116 257 5 10 18 -1 46 -44 93 -140
649 -849 712 -907 15 -14 31 -26 35 -26 16 0 37 32 31 47 -4 10 -90 121 -192
248 -238 296 -327 416 -339 457 -6 18 -15 64 -22 101 -14 85 -40 153 -85 219
-19 29 -33 54 -31 56 3 2 34 -10 70 -27 74 -36 151 -55 281 -70 74 -9 98 -16
133 -41 37 -26 42 -28 42 -11 0 27 -46 78 -89 100 -20 10 -63 26 -96 36 -81
23 -130 49 -192 103 -54 46 -78 81 -45 63 24 -12 79 -20 219 -31 67 -5 149
-16 183 -26 64 -18 89 -11 76 21 -8 23 -61 42 -188 70 -112 25 -218 66 -240
92 -10 13 -5 14 39 8 63 -8 212 16 325 51 122 38 128 49 32 64 -33 5 -117 27
-189 49 -71 22 -146 43 -165 48 -34 9 -31 10 83 46 78 25 117 42 117 52 0 18
-17 22 -142 38 -64 8 -95 16 -90 23 4 5 61 36 126 68 101 49 317 176 351 208
27 24 -25 23 -123 -2 -59 -15 -165 -35 -235 -44 -71 -9 -142 -23 -159 -32 -16
-8 -32 -13 -35 -10 -13 13 115 141 183 182 71 43 -110 19 -204 -27 -35 -17
-66 -28 -70 -25 -3 4 49 59 116 123 131 125 192 198 192 232 0 11 -2 21 -4 21
-2 0 -27 -15 -54 -34 -28 -18 -105 -55 -172 -82 -83 -33 -136 -61 -166 -87
-54 -47 -56 -34 -11 59 50 101 81 183 74 190 -10 10 -66 -34 -158 -124 -55
-53 -89 -79 -94 -72 -9 14 12 127 36 198 17 49 17 53 2 59 -22 8 -61 -39 -113
-136 l-41 -76 6 47 c10 74 7 178 -6 252 -6 39 -9 108 -7 158 8 138 -18 112
-62 -62 -32 -122 -89 -326 -100 -355 -7 -18 -9 -18 -19 8 -6 15 -21 82 -33
147 -12 66 -24 120 -27 120 -33 -1 -49 -63 -50 -200 -1 -66 -12 -114 -24 -100
-2 3 -12 28 -22 55 -20 55 -148 279 -176 309 -26 28 -33 14 -20 -38 11 -45 35
-375 28 -383 -3 -2 -27 25 -55 61 -69 87 -142 141 -142 105 0 -6 16 -63 37
-125 20 -63 33 -117 30 -121 -4 -3 -28 14 -54 38 -27 25 -84 66 -128 92 -44
27 -96 61 -115 77 l-35 30 80 74 c44 41 84 75 89 76 4 0 24 -14 43 -31 45 -39
68 -35 68 11 -1 19 -4 49 -8 66 -8 30 -5 34 73 94 91 69 274 190 288 190 5 0
18 -39 28 -86 19 -94 39 -129 67 -119 21 9 22 58 3 170 -17 91 -16 93 53 132
25 14 75 43 110 65 35 21 65 37 67 35 3 -2 -19 -34 -47 -70 -52 -68 -59 -100
-23 -105 15 -2 40 21 101 95 44 54 93 111 109 127 31 31 227 130 245 124 6 -2
-34 -58 -88 -125 -164 -204 -175 -217 -186 -240 -11 -24 4 -53 28 -53 12 0
141 152 330 388 32 40 74 81 94 91 157 79 548 156 931 184 25 2 158 4 295 5
l251 2 48 -57z m1813 -533 c65 -39 149 -93 187 -121 l69 -51 -6 -54 c-8 -73
-56 -160 -141 -253 -68 -75 -136 -194 -136 -240 0 -12 -3 -21 -7 -21 -5 0 -8
51 -9 113 -1 100 -5 124 -38 227 l-37 115 7 140 c4 88 3 154 -4 178 -6 20 -9
37 -7 37 2 0 57 -32 122 -70z m602 -456 c54 -50 55 -51 42 -82 -20 -47 -85
-102 -181 -151 -51 -27 -104 -64 -132 -93 -27 -27 -48 -47 -48 -45 0 3 16 38
35 78 52 112 65 175 65 324 0 73 3 134 6 138 7 7 124 -86 213 -169z m-5452
-228 c26 -39 76 -98 111 -132 82 -81 83 -105 4 -65 -35 18 -164 61 -183 61
-24 0 -2 -34 69 -110 90 -97 95 -105 56 -97 -64 14 -311 51 -344 51 -25 1 -35
-3 -35 -14 0 -15 179 -142 284 -203 l55 -31 -95 -17 c-146 -27 -172 -34 -177
-47 -4 -14 -6 -14 128 -42 58 -13 111 -26 119 -30 14 -8 -263 -102 -363 -122
-65 -14 -73 -33 -18 -47 153 -41 220 -52 298 -49 46 2 84 1 84 -2 0 -3 -41
-18 -91 -33 -50 -15 -255 -95 -454 -177 -200 -83 -366 -150 -368 -150 -6 0 21
74 56 150 l24 55 104 37 c57 20 145 49 194 65 81 25 90 31 93 54 2 16 -3 29
-12 32 -12 5 -146 -30 -308 -80 -10 -3 -18 0 -18 6 0 16 78 179 102 214 l19
27 127 0 c70 0 133 4 140 9 8 4 12 19 10 32 -3 24 -5 24 -120 27 -65 1 -118 5
-118 9 0 3 12 25 28 48 31 50 48 55 185 55 48 0 87 2 87 4 0 2 3 11 6 19 12
32 -24 47 -112 47 -46 0 -84 3 -84 6 0 25 247 343 370 477 73 79 68 80 147
-37z m5704 -41 c77 -85 112 -133 104 -144 -3 -6 -45 -22 -93 -37 -178 -53
-216 -67 -278 -110 -35 -24 -64 -40 -64 -36 0 4 34 41 76 82 92 90 136 156
165 245 12 36 25 64 29 63 3 -2 31 -30 61 -63z m-4765 12 c246 -71 427 -266
479 -515 17 -78 19 -227 4 -292 -84 -378 -475 -616 -849 -515 -129 34 -263
124 -342 228 -100 130 -143 263 -142 442 0 105 3 130 27 200 80 229 256 396
479 455 106 27 243 26 344 -3z m3882 -127 c287 -59 539 -295 623 -585 34 -115
34 -324 1 -440 -76 -263 -274 -462 -557 -562 -75 -26 -90 -28 -245 -28 -155 0
-170 2 -245 28 -130 46 -220 102 -321 202 -132 131 -195 244 -235 425 -26 120
-25 235 6 356 32 127 78 219 159 319 198 245 499 351 814 285z m1169 -262 c85
-127 197 -317 191 -324 -3 -2 -70 16 -149 42 -130 43 -155 48 -259 51 -96 4
-126 1 -180 -16 -35 -11 -66 -19 -68 -17 -1 2 33 25 77 50 105 60 141 93 198
179 52 78 101 137 113 137 4 0 39 -46 77 -102z m247 -463 c29 -13 181 -345
157 -345 -33 0 -148 47 -211 86 -177 109 -272 142 -450 154 -58 4 -97 8 -88 8
9 1 86 24 170 51 84 27 164 52 178 55 36 7 222 0 244 -9z m-6186 -137 c18 -35
49 -85 69 -112 l37 -48 -70 -67 c-38 -36 -108 -100 -154 -141 -93 -82 -228
-210 -417 -394 l-121 -118 -41 32 c-35 28 -39 36 -28 49 11 14 10 14 -5 2 -16
-12 -23 -9 -60 18 -24 18 -65 47 -92 66 l-49 33 54 34 c29 18 94 58 144 89 49
32 151 94 225 140 147 90 335 213 362 237 16 14 16 16 -5 41 l-22 27 -65 -36
c-164 -91 -397 -224 -420 -240 -14 -9 -98 -58 -188 -109 l-163 -91 -35 26
c-19 15 -33 32 -30 38 3 6 15 44 27 84 15 49 30 79 45 88 12 8 116 55 231 104
114 48 323 138 463 199 140 61 260 111 265 111 6 0 25 -28 43 -62z m200 -259
l34 -30 -48 -72 c-100 -152 -319 -411 -336 -400 -7 3 -8 1 -4 -6 5 -7 -14 -34
-48 -69 -31 -31 -53 -48 -49 -37 4 11 15 29 25 39 9 10 15 23 12 28 -9 14 -22
9 -29 -12 -3 -11 -12 -20 -20 -20 -7 0 -34 -21 -58 -47 -154 -165 -177 -187
-166 -161 7 15 17 25 22 21 6 -4 8 0 4 11 -4 10 -3 15 3 11 6 -3 10 3 10 15 0
13 4 19 12 14 6 -4 8 -3 5 3 -3 5 15 34 41 64 85 97 78 96 -26 -6 -56 -55
-107 -101 -112 -103 -49 -17 81 155 257 339 81 86 210 221 286 302 76 81 142
147 145 147 4 0 22 -14 40 -31z m5972 -9 c80 -16 161 -32 181 -35 l36 -5 37
-110 c37 -114 44 -156 25 -162 -24 -8 -12 -59 20 -86 27 -24 34 -40 51 -126
22 -108 24 -126 13 -126 -5 0 -66 48 -138 105 -136 111 -167 124 -173 74 -3
-27 9 -39 279 -268 l66 -56 12 -95 c7 -52 14 -103 16 -112 7 -36 -14 -25 -98
53 -64 60 -93 80 -109 77 -51 -7 -33 -40 92 -162 117 -115 120 -119 120 -162
0 -29 -4 -44 -12 -44 -7 0 -51 32 -97 71 -46 38 -114 88 -151 110 -45 26 -113
85 -201 175 -137 138 -170 158 -177 107 -2 -16 18 -44 77 -106 45 -46 81 -86
81 -89 0 -2 -54 -2 -119 0 -195 7 -340 -37 -484 -146 -37 -29 -69 -52 -71 -52
-2 0 -6 19 -10 42 -9 58 -40 123 -85 182 -57 74 -89 144 -101 222 -25 146 -42
229 -55 264 l-14 35 22 -29 c82 -109 137 -145 273 -177 98 -23 149 -46 180
-81 30 -32 59 -94 74 -155 9 -41 16 -53 31 -53 40 0 52 137 20 239 -17 54 -84
161 -102 161 -4 0 -64 62 -135 137 -113 119 -123 133 -84 111 63 -36 106 -47
250 -59 157 -13 209 -27 339 -95 57 -30 109 -54 116 -54 16 0 27 28 20 50 -3
10 -74 82 -156 159 -170 159 -247 206 -389 238 -44 10 -80 21 -80 24 0 4 26 5
58 3 33 -3 103 3 167 14 157 28 219 27 385 -8z m-5836 -86 c9 -3 13 -11 9 -17
-3 -6 -1 -7 6 -3 14 9 53 -2 46 -14 -3 -4 4 -6 15 -3 12 3 20 0 20 -7 0 -15
-73 -214 -96 -264 -17 -34 -43 -53 -30 -21 3 8 9 22 13 32 4 11 3 14 -5 9 -7
-4 -12 -13 -12 -20 0 -22 -43 -52 -110 -75 -36 -13 -84 -34 -107 -46 -24 -13
-43 -21 -43 -18 0 3 42 71 93 152 52 80 114 181 138 223 24 43 45 78 46 78 1
0 8 -3 17 -6z m831 -219 c54 -104 110 -214 126 -242 16 -29 29 -55 29 -58 0
-13 -31 -3 -57 18 -15 13 -49 31 -75 41 -25 9 -51 23 -58 31 -10 12 -130 360
-130 377 0 11 54 37 62 30 3 -4 50 -92 103 -197z m-531 130 l39 -6 -7 -67 c-3
-37 -6 -85 -6 -108 l0 -40 -91 -2 c-49 -1 -95 -5 -101 -8 -12 -8 -14 -13 32
126 18 52 34 101 36 108 3 9 14 12 31 8 16 -2 45 -8 67 -11z m236 5 c0 34 19
-11 35 -84 10 -43 26 -105 35 -138 17 -54 17 -58 2 -54 -9 3 -43 12 -75 20
-31 8 -62 18 -67 21 -6 4 -10 56 -10 120 l0 114 33 3 c17 2 35 -1 39 -7 5 -6
8 -4 8 5z m-1815 -360 c84 -57 208 -183 258 -262 101 -159 163 -329 213 -578
19 -96 44 -211 55 -255 102 -408 380 -724 734 -835 143 -44 361 -35 527 21
121 42 160 65 415 253 113 83 214 136 298 155 70 16 200 17 265 1 151 -35 314
-160 491 -376 133 -162 258 -281 388 -367 55 -37 104 -67 110 -67 20 0 23 -22
5 -36 -35 -27 -173 -94 -195 -94 -57 0 -274 188 -433 375 -33 39 -104 114
-158 168 -110 109 -160 138 -274 158 -116 20 -190 7 -379 -64 -22 -8 -61 -18
-86 -21 -90 -12 -330 -105 -531 -207 -233 -117 -400 -146 -579 -100 -242 62
-484 266 -638 538 -94 165 -134 296 -205 669 -55 286 -129 476 -247 634 -67
90 -105 126 -181 174 -32 20 -58 42 -58 49 0 8 4 7 10 -3 7 -12 9 -10 7 7 0
12 -5 19 -10 16 -5 -3 -7 7 -4 23 3 16 9 47 12 69 4 22 9 43 11 47 7 11 94
-35 179 -92z m1730 14 c256 -44 541 -193 820 -428 155 -130 304 -272 512 -486
467 -482 573 -578 768 -706 191 -124 494 -247 664 -270 28 -4 51 -9 51 -13 0
-4 -39 -28 -87 -55 -49 -27 -111 -62 -138 -77 -49 -27 -52 -28 -95 -13 -303
101 -538 239 -790 465 -193 173 -443 440 -471 505 -37 84 -129 237 -174 289
-84 98 -210 225 -223 225 -7 0 -18 -11 -24 -25 -10 -23 -6 -32 48 -103 168
-218 311 -510 329 -672 l6 -55 -45 48 c-72 76 -146 196 -248 403 -52 104 -119
226 -149 270 -164 239 -463 444 -746 511 -114 26 -348 24 -458 -5 -220 -59
-405 -205 -504 -399 -11 -23 -33 -89 -47 -145 -59 -233 -8 -464 161 -733 64
-102 82 -139 63 -132 -7 2 -12 9 -11 15 2 6 -4 9 -12 6 -8 -4 -35 16 -69 51
-153 158 -240 362 -253 590 -9 178 28 341 119 517 108 210 346 374 613 423 99
18 283 18 390 -1z m-1840 -288 c129 -130 201 -281 280 -589 38 -150 42 -178
23 -159 -13 13 -139 376 -141 409 -1 11 -5 19 -8 18 -3 -2 -16 17 -28 43 -38
78 -107 166 -181 233 -53 48 -70 70 -70 90 0 14 3 28 6 31 14 15 54 -11 119
-76z m1785 0 c196 -35 420 -157 579 -315 121 -120 163 -178 227 -311 41 -87
123 -275 140 -322 14 -40 5 -58 -16 -33 -34 41 -41 -14 -10 -74 20 -41 18 -51
-13 -51 -13 0 -17 5 -13 16 3 8 2 12 -4 9 -12 -7 -56 80 -105 205 -48 124
-127 280 -178 350 -241 333 -656 483 -1001 361 -56 -19 -170 -84 -181 -102 -4
-5 -12 -6 -18 -3 -7 4 -9 4 -5 0 4 -5 -13 -33 -38 -63 -81 -100 -133 -234
-134 -344 0 -26 7 -86 15 -135 19 -110 82 -240 166 -346 32 -40 57 -79 54 -86
-3 -7 0 -10 5 -7 6 3 10 4 10 1 0 -2 3 -11 6 -20 3 -9 1 -16 -6 -16 -6 0 -9 4
-6 9 3 5 -4 11 -15 14 -13 4 -18 10 -13 18 5 8 3 10 -5 4 -32 -19 -186 185
-235 312 -85 223 -87 409 -7 575 36 74 116 170 186 223 69 52 196 111 280 128
88 19 238 20 335 3z m-1849 -358 c21 -41 26 -76 6 -42 -6 12 -31 47 -54 77
-24 31 -43 62 -43 69 1 18 68 -59 91 -104z m7224 87 c38 -8 102 -30 142 -49
137 -65 228 -149 307 -281 l41 -70 -2 -135 c-4 -324 -108 -584 -279 -700 -120
-81 -214 -110 -370 -117 -133 -6 -169 -1 -454 68 -232 56 -345 71 -550 71
-267 0 -491 -41 -755 -139 -144 -53 -415 -191 -528 -269 -122 -84 -318 -241
-467 -374 -341 -304 -614 -455 -1006 -554 -166 -42 -462 -76 -653 -76 -104 1
-306 22 -317 33 -4 4 40 7 97 7 482 0 881 76 1248 237 132 58 324 169 361 208
45 48 -4 92 -63 57 -298 -179 -695 -316 -1082 -373 -113 -17 -483 -18 -583 -1
-115 19 -282 18 -322 -3 -46 -24 -166 -14 -346 26 -255 57 -498 151 -718 279
-147 85 -369 246 -360 261 3 5 -8 17 -25 27 -27 15 -41 32 -26 32 3 0 50 -22
105 -50 359 -180 720 -271 1245 -315 39 -3 192 -17 340 -32 580 -56 793 -41
1163 83 287 95 616 258 1002 494 69 42 179 107 245 145 66 38 148 86 183 107
99 60 405 211 533 262 151 60 355 113 493 127 64 7 176 9 275 6 180 -6 269
-22 470 -82 236 -70 293 -81 426 -79 149 2 276 51 378 145 216 198 233 511 39
721 -78 84 -175 130 -286 136 -98 5 -167 -8 -250 -48 -180 -86 -287 -305 -230
-472 8 -25 24 -54 34 -63 18 -16 18 -14 17 77 -2 155 47 248 164 313 46 25 65
30 124 30 126 0 230 -67 287 -183 30 -60 33 -75 32 -153 -1 -75 -5 -95 -32
-150 -16 -35 -41 -77 -55 -94 l-25 -30 -21 24 c-12 13 -21 20 -21 16 0 -5 -3
-6 -6 -3 -3 3 5 26 17 50 32 62 31 139 -2 203 -98 191 -359 147 -359 -61 0
-43 4 -51 45 -91 25 -23 45 -47 45 -53 0 -18 -61 -48 -111 -55 -61 -9 -143 15
-191 55 -42 34 -91 125 -108 199 -26 110 5 266 77 383 129 214 408 328 668
273z m-5699 -7 c4 -7 3 -8 -4 -4 -7 4 -12 3 -12 -3 0 -6 -11 -13 -24 -17 -14
-3 -33 -15 -43 -26 -18 -21 -18 -21 5 -9 12 6 22 8 22 3 0 -5 30 6 66 25 70
35 107 44 82 20 -7 -7 -35 -21 -63 -32 -27 -10 -62 -27 -77 -38 -15 -12 -32
-16 -40 -12 -7 5 -10 5 -6 0 4 -4 -10 -27 -31 -50 -44 -48 -74 -109 -92 -189
-24 -108 26 -273 109 -359 58 -60 114 -90 220 -117 52 -13 47 -25 -12 -34 -42
-7 -145 14 -171 34 -5 4 -29 11 -52 15 -24 4 -43 11 -43 16 0 6 -4 8 -9 5 -15
-9 -67 58 -101 129 -68 142 -72 291 -11 420 48 103 151 197 243 224 18 5 34
10 35 10 1 1 5 -4 9 -11z m336 -129 c89 -19 157 -57 233 -133 159 -157 205
-380 119 -574 -43 -97 -102 -161 -199 -214 -56 -31 -66 -33 -155 -33 -82 1
-103 4 -152 27 -32 15 -58 29 -58 32 0 2 24 12 53 22 134 44 228 121 279 229
39 84 43 185 11 255 -23 52 -98 125 -151 147 -69 29 -16 24 68 -7 45 -17 84
-29 87 -27 11 11 -49 63 -101 88 -130 62 -263 18 -292 -95 -8 -35 12 -106 40
-139 26 -30 83 -57 121 -57 55 0 8 -69 -62 -90 -101 -30 -240 68 -274 194 -15
56 -6 143 21 195 25 50 94 122 139 145 79 41 181 54 273 35z m306 -44 c-3 -3
-9 2 -12 12 -6 14 -5 15 5 6 7 -7 10 -15 7 -18z m-2192 -77 c149 -159 324
-406 492 -693 156 -268 327 -480 477 -593 l30 -23 -35 17 c-74 36 -188 122
-266 201 -123 124 -214 250 -414 573 -177 285 -248 387 -305 440 -34 31 -55
72 -55 105 0 38 22 31 76 -27z m31 -380 c52 -52 74 -89 31 -52 l-23 19 19 -22
c10 -12 23 -21 28 -20 15 3 138 -175 133 -191 -3 -7 -1 -11 4 -8 8 5 53 -66
145 -226 15 -27 24 -48 21 -48 -12 0 -184 243 -178 253 3 5 1 7 -4 4 -14 -9
-46 40 -37 55 4 6 3 8 -4 4 -12 -7 -44 33 -36 46 3 5 1 7 -4 6 -14 -4 -82 84
-75 96 3 5 1 6 -4 3 -11 -7 -49 41 -45 56 1 4 -3 6 -10 5 -6 -2 -22 16 -35 39
l-24 42 23 -4 c12 -3 46 -28 75 -57z m7049 -26 c47 -40 56 -98 29 -190 -11
-36 -27 -60 -55 -85 -51 -44 -82 -46 -41 -3 74 78 92 174 46 254 -25 44 -16
55 21 24z m-4236 -72 c0 -5 -5 -10 -11 -10 -5 0 -7 5 -4 10 3 6 8 10 11 10 2
0 4 -4 4 -10z m417 -72 c33 -59 56 -118 45 -118 -4 0 -13 -4 -21 -9 -10 -7
-11 -13 -1 -32 10 -20 10 -22 -1 -12 -15 15 -70 223 -59 223 5 0 21 -24 37
-52z m-1514 -73 c-22 -15 -106 -35 -147 -35 -12 0 -30 6 -40 13 -14 11 -9 13
41 14 71 2 133 10 141 17 3 3 10 6 16 6 6 0 1 -7 -11 -15z m-1502 -341 c478
-424 797 -564 1166 -513 105 14 300 79 458 152 479 220 481 221 700 221 180 1
214 -8 349 -88 222 -133 346 -414 275 -624 -11 -34 -22 -62 -24 -62 -1 0 -38
-6 -81 -14 -44 -8 -86 -14 -94 -14 -8 1 -49 -3 -90 -7 l-75 -7 36 39 c121 127
123 301 6 429 -27 29 -63 62 -82 74 -128 79 -346 70 -530 -23 -33 -16 -127
-74 -209 -129 -272 -181 -404 -230 -611 -229 -258 2 -609 142 -900 360 -107
80 -257 214 -376 335 -113 115 -117 120 -133 185 -9 36 -16 76 -16 89 0 21 5
19 59 -25 32 -26 109 -93 172 -149z m3368 78 c202 -187 395 -314 601 -396 52
-21 99 -42 103 -46 10 -9 -71 -50 -98 -50 -77 0 -509 254 -497 292 1 5 -2 7
-8 3 -12 -7 -192 164 -220 211 -16 25 -18 37 -10 58 5 14 12 26 16 26 3 0 54
-44 113 -98z m-2087 38 c6 0 7 -8 3 -17 -4 -13 -3 -15 5 -7 7 7 27 2 68 -17
105 -50 151 -61 257 -61 81 -1 115 4 178 25 42 13 77 23 77 21 0 -11 -150 -77
-217 -95 -98 -27 -207 -23 -270 9 -52 27 -126 98 -118 113 4 6 -1 17 -11 25
-18 15 -18 15 -1 10 10 -3 23 -6 29 -6z m1454 -207 c88 -43 141 -93 296 -280
31 -37 79 -93 105 -123 39 -44 42 -50 17 -33 -40 29 -95 87 -197 208 -86 103
-195 196 -282 240 -37 19 -42 24 -20 20 16 -4 53 -18 81 -32z m3189 -13 c161
-10 285 -31 460 -80 261 -72 471 -111 525 -97 37 10 20 -13 -28 -37 -86 -44
-125 -49 -247 -36 -60 6 -180 27 -265 45 -415 89 -595 98 -885 44 -318 -59
-657 -212 -898 -406 -37 -30 -72 -51 -77 -48 -6 4 -9 2 -8 -3 2 -6 -21 -29
-51 -51 -30 -22 -72 -57 -95 -78 -164 -151 -189 -170 -426 -330 -154 -104
-449 -234 -640 -283 -177 -45 -250 -54 -435 -55 -99 0 -157 -3 -130 -6 28 -4
4 -4 -53 -2 -86 4 -183 19 -147 22 6 1 89 8 185 16 193 16 306 34 450 70 321
82 531 182 785 373 55 41 105 75 112 75 7 0 10 3 8 7 -6 10 319 292 448 389
189 143 481 300 682 366 198 66 319 90 570 114 6 0 78 -4 160 -9z m1395 -45
c0 -31 -50 -137 -104 -220 -65 -100 -196 -240 -281 -300 -107 -76 -287 -154
-425 -184 -109 -24 -251 -31 -401 -20 -300 22 -510 -30 -636 -158 l-52 -52
-88 18 c-268 58 -546 52 -718 -14 -48 -19 37 36 160 103 255 139 486 224 709
262 115 19 148 21 344 14 480 -15 566 -10 737 47 210 70 381 184 620 413 108
103 135 121 135 91z m-1237 -220 c97 -15 291 -66 411 -107 62 -22 67 -25 50
-38 -27 -23 -158 -17 -319 14 -321 61 -560 57 -847 -15 -117 -30 -145 -40
-313 -119 -110 -51 -431 -261 -590 -386 -47 -36 -179 -114 -194 -114 -6 0 -11
4 -11 9 0 18 254 262 267 257 7 -3 12 0 10 7 -1 7 4 11 11 9 8 -1 11 2 8 7
-14 22 307 233 479 316 159 76 381 144 532 164 116 15 404 13 506 -4z m-3604
-110 c110 -60 178 -168 152 -239 -6 -16 -10 -12 -18 20 -23 92 -96 164 -202
199 -73 24 -115 22 -271 -11 -43 -9 -6 18 58 43 87 33 208 28 281 -12z m3476
-84 c26 -5 -6 -7 -95 -7 -74 0 -121 3 -105 7 41 9 151 10 200 0z m200 -16 l70
-14 -79 4 c-43 3 -92 5 -108 5 -15 0 -28 5 -28 10 0 14 61 12 145 -5z m-3764
-107 c44 -19 87 -74 71 -90 -8 -8 -20 -2 -43 20 -37 36 -112 57 -172 48 -48
-7 -196 -49 -276 -77 -30 -11 -55 -18 -57 -16 -7 7 86 68 138 91 46 21 118 40
183 49 35 4 119 -9 156 -25z m-1831 -308 c107 -80 223 -166 256 -190 34 -25
180 -134 325 -242 610 -457 687 -512 895 -641 413 -257 830 -382 1442 -434
351 -30 615 1 1137 131 455 113 542 126 837 126 172 0 199 -2 189 -14 -23 -28
-107 -47 -241 -56 -298 -21 -435 -47 -730 -142 -458 -146 -710 -192 -1065
-193 -229 0 -296 4 -478 26 -509 64 -930 241 -1392 584 -363 269 -473 352
-690 521 -335 262 -567 467 -539 478 9 3 12 1 9 -4 -3 -6 1 -10 10 -10 11 0
15 -5 12 -14 -4 -10 -1 -13 8 -9 8 3 18 -2 21 -11 3 -9 10 -14 14 -11 4 3 13
-2 20 -10 7 -8 17 -12 22 -9 5 3 20 -2 32 -12 12 -11 4 -2 -18 18 -22 20 -42
36 -44 34 -2 -2 -15 7 -30 21 -15 14 -76 67 -137 118 -60 51 -148 130 -195
175 l-85 81 110 -83 c61 -45 198 -148 305 -228z m1790 225 c17 -9 30 -18 30
-21 0 -2 -26 -1 -57 3 -32 3 -75 7 -95 7 -38 0 -50 10 -25 19 27 12 120 6 147
-8z m4674 -58 c-63 -123 -182 -292 -272 -384 -257 -263 -615 -392 -976 -354
-128 14 -210 39 -446 133 -208 84 -276 103 -415 119 -232 26 -489 -44 -713
-195 -407 -275 -424 -285 -587 -356 -65 -28 -248 -75 -355 -91 -151 -24 -580
-16 -630 11 -12 7 -31 10 -41 7 -10 -3 -19 -1 -19 5 0 6 -19 8 -47 5 -88 -8
-526 74 -558 105 -9 8 120 2 135 -7 10 -6 276 -24 435 -30 310 -12 683 30 889
99 160 54 313 133 456 235 384 275 648 384 967 398 214 9 331 -13 624 -121
250 -91 300 -101 499 -100 149 1 174 3 255 28 120 35 336 143 438 218 82 61
276 229 331 287 36 37 52 31 30 -12z m-588 -192 c-34 -25 -118 -52 -188 -59
-42 -5 -115 -2 -200 9 -96 11 -153 14 -205 7 -87 -10 -108 -2 -58 23 50 23
164 29 315 17 98 -9 143 -8 210 3 47 7 99 13 115 14 28 0 29 0 11 -14z m-5951
-4 c3 -5 2 -12 -3 -15 -5 -3 -9 1 -9 9 0 17 3 19 12 6z m-169 -36 c20 -16 77
-68 128 -114 81 -75 165 -145 280 -234 20 -16 33 -33 30 -39 -4 -7 -2 -8 5 -4
14 9 104 -61 96 -74 -3 -5 0 -12 6 -16 8 -4 9 -3 5 4 -15 25 10 9 114 -75 60
-49 125 -101 144 -116 20 -16 34 -32 31 -37 -3 -6 0 -8 7 -5 7 3 63 -32 123
-78 375 -280 619 -452 720 -507 33 -18 65 -37 71 -42 24 -18 238 -120 333
-158 113 -44 332 -109 471 -138 256 -54 585 -78 867 -62 298 16 621 40 768 56
194 20 275 25 249 14 -22 -9 -164 -36 -259 -50 -27 -4 -160 -23 -295 -43 -135
-20 -273 -38 -306 -40 -34 -2 -66 -7 -71 -10 -27 -17 -292 -19 -413 -4 -69 9
-161 19 -205 22 -259 20 -454 61 -726 154 -315 107 -483 185 -869 400 -97 55
-160 95 -160 103 0 5 22 -7 49 -26 27 -19 52 -32 56 -28 3 3 9 2 13 -3 11 -15
133 -78 139 -71 12 12 -10 38 -68 78 -90 63 -303 223 -389 293 -41 33 -127
100 -191 148 -157 118 -280 227 -272 240 3 6 1 7 -6 3 -13 -8 -26 3 -211 173
-198 182 -250 236 -245 249 3 7 1 11 -4 8 -5 -3 -21 11 -37 32 -15 20 -25 35
-21 32 3 -3 22 -18 43 -35z m295 -42 c13 -16 12 -17 -3 -4 -10 7 -18 15 -18
17 0 8 8 3 21 -13z m5444 -17 c50 -7 99 -11 109 -8 14 4 17 2 11 -8 -6 -9 -28
-11 -89 -6 -44 4 -93 6 -108 6 -16 0 -28 4 -28 10 0 5 -7 7 -15 4 -8 -4 -15
-1 -15 5 0 14 21 13 135 -3z m-4531 -262 c612 -200 1142 -301 1596 -305 l145
-1 -65 -13 c-164 -33 -550 -46 -740 -25 -234 26 -642 117 -826 185 -144 53
-312 136 -433 213 -84 53 -177 117 -199 137 -2 1 64 -24 145 -57 81 -32 251
-92 377 -134z m3446 -56 c86 -16 211 -58 205 -68 -3 -6 1 -7 9 -4 8 3 56 -16
106 -42 51 -27 87 -50 82 -52 -13 -4 -156 32 -247 63 -38 13 -105 30 -147 39
-225 47 -445 -17 -693 -199 -108 -79 -292 -199 -375 -244 -92 -49 -302 -125
-421 -151 -251 -56 -628 -65 -939 -21 -146 20 -304 50 -298 56 2 2 41 -1 88
-6 237 -24 405 -30 632 -19 320 14 450 36 664 111 129 45 333 158 469 260 60
45 202 138 270 177 180 103 393 139 595 100z m-105 -149 c-143 -25 -220 -42
-270 -58 -30 -10 -55 -15 -55 -11 0 33 170 79 290 78 81 0 83 -1 35 -9z m1599
-31 c-74 -83 -168 -153 -254 -189 -72 -29 -215 -71 -300 -88 -80 -16 -314 -28
-390 -19 -108 12 -317 9 -456 -7 -150 -17 -304 -48 -554 -111 -142 -37 -350
-85 -510 -119 -78 -17 542 283 683 330 181 61 264 75 457 82 124 4 224 0 341
-11 278 -27 437 -17 656 38 119 31 275 81 311 101 36 19 38 19 16 -7z m-4531
-195 c-7 -2 -21 -2 -30 0 -10 3 -4 5 12 5 17 0 24 -2 18 -5z m3662 -224 c44
-7 148 -15 230 -18 l150 -6 -59 -34 -58 -34 -210 6 c-423 13 -670 -18 -1153
-143 -123 -31 -346 -74 -475 -90 -111 -13 -660 -14 -660 0 0 6 20 10 44 10 59
0 302 26 412 44 294 48 420 74 789 161 253 60 462 99 570 107 119 9 350 7 420
-3z m-275 -414 c0 -5 -80 -41 -134 -59 -23 -8 -93 -17 -156 -20 -63 -4 -148
-9 -187 -12 -40 -4 -73 -2 -73 2 0 11 238 74 318 84 65 8 232 12 232 5z"/>
                <path d="M4950 8781 c-5 -11 -10 -22 -10 -24 0 -3 37 -38 83 -78 45 -39 109
-97 143 -128 33 -31 98 -90 145 -131 46 -41 119 -108 162 -148 82 -76 119 -90
125 -46 3 22 -42 66 -403 396 -205 186 -223 199 -245 159z"/>
                <path d="M4150 8700 l-265 -5 0 -30 0 -30 500 0 500 0 3 28 c2 17 -2 29 -11
33 -20 7 -417 10 -727 4z"/>
                <path d="M3722 8481 c-66 -23 -101 -56 -251 -236 -123 -146 -181 -223 -181
-236 0 -10 29 -39 40 -39 5 0 66 71 137 157 187 230 227 268 291 282 36 7 231
11 605 11 l552 0 50 -24 c28 -13 151 -98 274 -190 134 -99 233 -166 246 -166
23 0 40 24 30 41 -6 9 -280 220 -410 315 -38 29 -90 63 -115 75 l-45 24 -585
2 c-547 2 -588 1 -638 -16z"/>
                <path d="M5729 8324 c-8 -10 -10 -20 -3 -29 25 -36 226 -275 230 -275 15 0 44
22 44 34 0 7 -37 58 -83 112 -45 54 -95 116 -111 137 -30 40 -56 47 -77 21z"/>
                <path d="M4161 8280 c-390 -5 -404 -6 -417 -25 -9 -13 -10 -25 -4 -35 8 -13
48 -15 252 -15 134 0 392 -1 575 -2 l332 -3 83 -57 c46 -31 171 -120 278 -197
200 -143 242 -164 248 -119 3 17 -13 33 -70 76 -443 327 -511 372 -572 380
-27 4 -106 6 -175 5 -69 -2 -308 -5 -530 -8z"/>
                <path d="M5680 8090 c-9 -17 -6 -25 15 -45 20 -21 28 -24 45 -15 22 12 27 49
8 68 -19 19 -56 14 -68 -8z"/>
                <path d="M3600 8038 c-51 -63 -65 -91 -57 -112 12 -31 46 -17 88 37 55 69 65
92 49 112 -21 25 -36 18 -80 -37z"/>
                <path d="M3789 8064 c-9 -11 -10 -20 -2 -32 9 -15 56 -17 514 -20 459 -2 505
-1 516 14 9 12 9 22 2 35 -9 18 -32 19 -513 19 -447 0 -505 -2 -517 -16z"/>
                <path d="M5009 7914 c-20 -24 -3 -41 117 -116 184 -115 224 -138 244 -138 44
0 36 45 -12 76 -168 109 -310 194 -321 194 -8 0 -20 -7 -28 -16z"/>
                <path d="M3908 7860 c-22 -13 -24 -56 -3 -63 8 -4 231 -7 496 -8 500 -1 498
-1 499 38 0 35 -37 38 -510 40 -311 2 -471 0 -482 -7z"/>
                <path d="M4112 7638 c-19 -19 -14 -48 11 -57 33 -14 983 -14 1007 -1 25 14 26
46 1 60 -30 15 -1003 14 -1019 -2z"/>
                <path d="M3904 7515 c-21 -33 -10 -58 28 -63 33 -4 60 23 56 57 -2 21 -9 27
-35 29 -25 3 -35 -2 -49 -23z"/>
                <path d="M4372 7418 c-15 -15 -15 -33 1 -46 7 -6 129 -11 325 -14 269 -2 314
-1 322 12 15 23 12 38 -9 50 -29 15 -623 14 -639 -2z"/>
                <path d="M5134 7275 c-8 -31 10 -55 41 -55 34 0 51 25 37 55 -16 36 -69 36
-78 0z"/>
                <path d="M4228 7229 c-22 -13 -23 -55 -2 -63 9 -3 136 -6 284 -6 250 0 269 1
291 19 23 19 23 20 6 38 -16 16 -42 18 -290 20 -176 2 -278 -1 -289 -8z"/>
                <path d="M4942 7138 c-18 -18 -15 -36 9 -49 29 -15 389 -80 410 -74 19 6 32
32 24 45 -6 9 -69 24 -283 65 -154 29 -145 28 -160 13z"/>
                <path d="M4085 7004 c-9 -9 -14 -21 -12 -28 11 -33 49 -36 406 -33 325 2 355
3 365 20 8 12 8 22 0 35 -10 16 -41 17 -377 20 -326 2 -367 1 -382 -14z"/>
                <path d="M4534 6810 c-38 -15 -41 -60 -5 -80 26 -13 66 10 66 39 0 30 -33 52
-61 41z"/>
                <path d="M4192 6781 c-8 -4 -12 -19 -10 -32 3 -22 8 -24 73 -27 56 -2 72 0 82
14 9 12 9 22 2 35 -8 16 -21 19 -72 19 -34 0 -68 -4 -75 -9z"/>
                <path d="M4778 6783 c-20 -5 -30 -27 -22 -48 5 -12 27 -15 114 -15 87 0 109 3
114 15 9 24 -4 43 -32 48 -34 6 -152 6 -174 0z"/>
                <path d="M4253 6573 c-16 -6 -17 -35 -1 -51 9 -9 118 -12 429 -12 393 0 418 1
440 19 20 16 21 21 10 35 -12 14 -59 16 -440 15 -234 0 -432 -3 -438 -6z"/>
                <path d="M5135 6405 c-63 -8 -232 -13 -453 -14 -208 -1 -361 -5 -371 -11 -26
-14 -33 -37 -15 -55 13 -13 62 -15 343 -15 319 0 469 10 634 42 57 11 86 35
72 58 -8 13 -84 11 -210 -5z"/>
                <path d="M3797 6173 c-14 -13 -7 -51 11 -59 9 -5 231 -10 492 -11 514 -4 525
-3 525 47 l0 25 -511 3 c-281 1 -514 -1 -517 -5z"/>
                <path d="M5219 5969 c-199 -98 -330 -158 -402 -185 l-72 -28 -339 2 c-289 2
-343 0 -363 -13 -26 -17 -31 -50 -9 -58 8 -3 162 -9 343 -13 367 -7 381 -6
529 62 128 58 458 225 473 239 21 20 6 45 -27 45 -16 0 -76 -23 -133 -51z"/>
                <path d="M3853 5970 c-28 -11 -30 -46 -4 -60 13 -6 184 -10 486 -10 302 0 473
4 486 10 23 13 24 33 4 54 -14 13 -77 15 -483 15 -257 0 -477 -4 -489 -9z"/>
                <path d="M5325 5823 c-62 -37 -174 -101 -282 -160 -69 -38 -86 -58 -72 -85 20
-37 34 -30 354 161 93 56 110 70 110 91 0 38 -39 35 -110 -7z"/>
                <path d="M4308 5553 c-76 -3 -89 -7 -99 -24 -21 -40 2 -49 135 -49 126 0 146
6 146 42 0 11 -12 21 -37 27 -21 6 -42 10 -48 9 -5 -1 -49 -4 -97 -5z"/>
                <path d="M5372 5348 c-7 -7 -12 -25 -12 -40 0 -22 6 -29 27 -34 36 -9 79 36
63 67 -12 22 -59 26 -78 7z"/>
                <path d="M5639 5323 c-8 -9 -63 -61 -124 -116 -60 -56 -130 -123 -154 -151
l-43 -50 22 -18 c16 -13 27 -15 38 -8 10 5 89 78 176 162 137 132 158 156 152
176 -9 27 -47 30 -67 5z"/>
                <path d="M6188 5163 c-15 -17 -87 -136 -222 -366 -62 -105 -69 -142 -27 -142
22 0 44 31 168 240 79 131 143 245 143 252 0 10 -29 33 -43 33 -2 0 -11 -8
-19 -17z"/>
                <path d="M7124 4803 c-14 -14 -16 -29 -10 -92 3 -40 6 -98 6 -127 0 -42 4 -55
19 -63 13 -7 23 -6 36 3 16 11 17 25 10 145 -6 112 -10 133 -25 141 -14 7 -23
5 -36 -7z"/>
                <path d="M6877 4657 c-24 -17 -33 -210 -11 -232 17 -17 41 -10 54 16 6 10 10
58 10 108 0 68 -4 93 -16 105 -19 19 -16 19 -37 3z"/>
                <path d="M3380 7251 c0 -5 7 -15 17 -22 15 -13 15 -12 4 9 -12 23 -21 28 -21
13z"/>
                <path d="M3420 7184 c-1 -27 23 -130 32 -139 15 -15 0 92 -17 124 -8 14 -14
21 -15 15z"/>
                <path d="M3366 7162 c-3 -5 4 -27 15 -48 l21 -39 -7 40 c-7 43 -19 63 -29 47z"/>
                <path d="M3300 7122 c0 -5 7 -15 15 -22 8 -7 15 -8 15 -2 0 5 -7 15 -15 22 -8
7 -15 8 -15 2z"/>
                <path d="M3498 7008 c2 -46 -1 -94 -7 -108 -8 -21 -10 -15 -10 38 -1 48 -4 62
-16 62 -11 0 -15 -11 -15 -38 0 -62 -37 -190 -75 -258 -64 -115 -187 -214
-307 -249 -42 -13 -96 -19 -163 -19 -136 0 -214 24 -341 109 -54 36 -104 65
-111 65 -22 0 -14 -39 17 -85 65 -95 193 -177 330 -211 86 -22 240 -15 327 15
132 45 244 129 318 241 55 82 81 152 96 255 10 62 9 85 -5 137 -9 35 -17 76
-18 92 -2 16 -8 31 -14 33 -7 2 -9 -24 -6 -79z"/>
                <path d="M3348 7047 c-5 -10 -8 -40 -8 -65 0 -115 -47 -210 -151 -306 -54 -50
-86 -71 -142 -91 -109 -41 -117 -45 -72 -38 73 11 146 44 207 95 74 62 152
179 168 251 13 56 10 185 -2 154z"/>
                <path d="M3297 6977 c-13 -100 -46 -173 -108 -239 -56 -59 -141 -115 -190
-125 -16 -3 -33 -11 -39 -19 -9 -10 -5 -11 27 -2 58 16 106 43 170 96 107 90
160 199 151 312 -3 43 -3 42 -11 -23z"/>
                <path d="M3390 6997 c0 -23 -7 -69 -15 -102 -49 -187 -204 -338 -386 -376 -78
-16 -89 -33 -16 -25 194 21 363 173 421 376 21 78 25 170 6 170 -5 0 -10 -19
-10 -43z"/>
                <path d="M2530 6721 c0 -6 4 -13 10 -16 6 -3 7 1 4 9 -7 18 -14 21 -14 7z"/>
                <path d="M2470 6713 c0 -5 10 -19 21 -33 l20 -25 -16 33 c-15 30 -25 41 -25
25z"/>
                <path d="M2679 6616 c30 -23 125 -45 138 -33 2 3 -17 9 -44 12 -26 4 -63 16
-81 26 -46 26 -52 24 -13 -5z"/>
                <path d="M2570 6616 c0 -2 7 -7 16 -10 8 -3 12 -2 9 4 -6 10 -25 14 -25 6z"/>
                <path d="M2880 6579 c0 -5 5 -7 10 -4 6 3 10 8 10 11 0 2 -4 4 -10 4 -5 0 -10
-5 -10 -11z"/>
                <path d="M2710 6546 c28 -17 50 -21 35 -7 -6 5 -21 12 -35 15 l-25 7 25 -15z"/>
                <path d="M2870 6539 c0 -5 11 -9 25 -9 14 0 25 4 25 9 0 5 -11 9 -25 9 -14 0
-25 -4 -25 -9z"/>
                <path d="M2814 6511 c4 -5 0 -12 -6 -14 -7 -3 14 -5 47 -4 47 0 51 1 18 4 -24
2 -43 8 -43 14 0 5 -5 9 -11 9 -5 0 -8 -4 -5 -9z"/>
                <path d="M6680 7351 c-113 -30 -235 -95 -320 -170 -53 -47 -26 -37 44 16 123
93 295 153 439 153 139 0 276 -46 422 -143 l70 -47 -50 45 c-150 136 -410 199
-605 146z"/>
                <path d="M6720 7306 c-83 -19 -160 -45 -210 -73 -49 -28 -230 -203 -230 -223
0 -11 85 72 92 90 2 4 28 28 58 55 82 72 212 127 338 142 23 3 42 9 42 14 0
11 -21 10 -90 -5z"/>
                <path d="M6860 7310 c0 -5 18 -10 39 -10 103 0 293 -92 415 -201 70 -63 111
-158 129 -297 13 -101 12 -145 -7 -267 l-6 -40 16 45 c9 26 18 93 21 161 5
102 3 125 -16 182 -46 137 -99 210 -225 305 -77 59 -166 99 -261 117 -94 18
-105 18 -105 5z"/>
                <path d="M6798 7263 c6 -2 18 -2 25 0 6 3 1 5 -13 5 -14 0 -19 -2 -12 -5z"/>
                <path d="M6538 7193 c7 -3 16 -2 19 1 4 3 -2 6 -13 5 -11 0 -14 -3 -6 -6z"/>
                <path d="M7373 7113 c42 -48 79 -118 98 -183 12 -40 14 -42 17 -18 5 38 -58
155 -110 204 l-42 39 37 -42z"/>
                <path d="M6308 7123 c-30 -35 -32 -47 -5 -27 15 10 27 25 27 32 0 16 -4 15
-22 -5z"/>
                <path d="M6429 7103 c-13 -16 -12 -17 4 -4 9 7 17 15 17 17 0 8 -8 3 -21 -13z"/>
                <path d="M7270 7092 c0 -4 10 -13 23 -21 22 -14 22 -14 3 8 -20 22 -26 25 -26
13z"/>
                <path d="M6387 7050 c-15 -16 -23 -30 -18 -30 5 0 19 14 31 30 12 17 20 30 17
30 -2 0 -16 -13 -30 -30z"/>
                <path d="M6240 7028 c-29 -40 -40 -76 -20 -63 6 3 10 12 10 18 0 7 11 29 25
50 35 51 22 47 -15 -5z"/>
                <path d="M7341 6983 c17 -41 49 -89 38 -58 -17 47 -45 105 -51 105 -4 0 2 -21
13 -47z"/>
                <path d="M7270 6996 c0 -2 8 -10 18 -17 15 -13 16 -12 3 4 -13 16 -21 21 -21
13z"/>
                <path d="M6316 6974 c-5 -14 -4 -15 9 -4 17 14 19 20 6 20 -5 0 -12 -7 -15
-16z"/>
                <path d="M6240 6928 c-22 -45 -40 -142 -40 -218 0 -33 3 -41 10 -30 5 8 10 38
10 65 0 61 25 182 41 201 7 8 9 17 6 20 -3 3 -15 -14 -27 -38z"/>
                <path d="M6267 6835 c-19 -84 -22 -190 -7 -200 6 -4 10 21 10 67 1 40 7 98 14
129 8 31 10 62 6 68 -3 7 -14 -22 -23 -64z"/>
                <path d="M6166 6885 c-3 -8 -1 -15 3 -15 5 0 11 7 15 15 3 8 1 15 -3 15 -5 0
-11 -7 -15 -15z"/>
                <path d="M7384 6868 c4 -13 9 -65 13 -115 3 -51 10 -93 16 -93 6 0 8 33 3 93
-7 104 -14 137 -28 137 -6 0 -7 -10 -4 -22z"/>
                <path d="M7334 6864 c5 -10 11 -61 13 -111 3 -51 10 -93 15 -93 17 0 -6 205
-25 217 -7 4 -8 0 -3 -13z"/>
                <path d="M7504 6859 c-3 -6 -3 -41 0 -79 20 -198 -58 -406 -205 -547 -72 -70
-93 -85 -168 -122 -369 -187 -820 6 -947 404 -14 44 -28 111 -31 148 -5 62 -8
68 -27 65 -19 -3 -22 -12 -29 -83 -28 -266 138 -546 398 -674 128 -63 182 -75
330 -75 153 0 242 21 365 85 288 149 444 450 386 739 -26 126 -50 174 -72 139z"/>
                <path d="M6154 6820 c-6 -21 -7 -44 -3 -51 4 -7 10 7 14 35 9 59 2 68 -11 16z"/>
                <path d="M6322 6840 c0 -14 2 -19 5 -12 2 6 2 18 0 25 -3 6 -5 1 -5 -13z"/>
                <path d="M6312 6690 c0 -19 2 -27 5 -17 2 9 2 25 0 35 -3 9 -5 1 -5 -18z"/>
                <path d="M6200 6625 c0 -8 4 -15 9 -15 5 0 11 7 15 15 3 9 0 15 -9 15 -8 0
-15 -7 -15 -15z"/>
                <path d="M7404 6605 c-9 -37 2 -41 14 -6 7 18 7 31 2 31 -5 0 -12 -11 -16 -25z"/>
                <path d="M6260 6603 c1 -65 67 -213 132 -296 36 -45 133 -114 203 -145 62 -27
187 -52 257 -52 126 0 299 74 395 168 65 64 102 122 127 199 25 77 15 99 -12
26 -35 -96 -68 -147 -137 -211 -121 -113 -299 -176 -440 -154 -152 24 -286 89
-361 176 -52 60 -109 161 -134 239 -22 68 -30 81 -30 50z"/>
                <path d="M6322 6583 c7 -51 47 -133 78 -160 14 -12 26 -20 28 -19 1 2 -12 25
-31 53 -18 27 -41 75 -51 106 -21 65 -31 74 -24 20z"/>
                <path d="M7358 6614 c-5 -4 -8 -22 -8 -40 0 -19 -10 -44 -22 -61 -13 -15 -34
-50 -47 -76 -32 -63 -134 -158 -213 -196 -112 -55 -237 -70 -348 -40 -143 38
-248 103 -318 194 -19 25 -21 26 -11 5 54 -117 258 -229 429 -235 214 -7 410
115 508 318 25 51 42 100 40 114 -2 14 -6 21 -10 17z"/>
                <path d="M7296 6560 c-9 -22 -16 -48 -15 -58 0 -9 9 7 20 37 22 64 19 80 -5
21z"/>
                <path d="M6214 6565 c8 -35 82 -195 91 -195 3 0 -5 21 -18 48 -14 26 -32 72
-42 102 -20 62 -42 94 -31 45z"/>
                <path d="M7176 6379 c-44 -45 -89 -78 -127 -96 -32 -15 -59 -31 -59 -35 0 -36
180 90 244 170 37 46 10 28 -58 -39z"/>
                <path d="M6509 6337 c30 -38 205 -117 258 -117 29 0 2 18 -36 24 -42 6 -167
62 -211 93 -24 17 -24 17 -11 0z"/>
                <path d="M6940 6241 c0 -5 5 -13 10 -16 6 -3 10 -2 10 4 0 5 -4 13 -10 16 -5
3 -10 2 -10 -4z"/>
                <path d="M6823 6223 c15 -2 39 -2 55 0 15 2 2 4 -28 4 -30 0 -43 -2 -27 -4z"/>
                <path d="M1976 5783 c-6 -14 -5 -15 5 -6 7 7 10 15 7 18 -3 3 -9 -2 -12 -12z"/>
                <path d="M8505 6127 c-24 -19 -14 -60 20 -75 21 -10 28 -9 45 8 23 23 15 51
-20 70 -24 13 -23 13 -45 -3z"/>
                <path d="M8253 5783 c-27 -10 -13 -51 30 -86 23 -20 80 -72 127 -116 85 -81
112 -95 124 -65 12 32 4 42 -119 157 -120 112 -134 122 -162 110z"/>
                <path d="M2610 6108 c-12 -22 -12 -22 6 -6 10 10 15 20 12 24 -4 3 -12 -5 -18
-18z"/>
                <path d="M8195 4710 c10 -11 23 -20 28 -20 6 0 1 9 -11 20 -12 11 -24 20 -28
20 -4 0 1 -9 11 -20z"/>
                <path d="M1710 3331 c47 -39 131 -94 135 -89 3 2 -25 25 -63 50 -78 52 -108
69 -72 39z"/>
                <path d="M4823 3943 c-7 -3 -13 -9 -13 -14 0 -6 4 -8 9 -5 4 3 19 -6 32 -20
53 -58 308 -212 428 -259 103 -40 67 -13 -78 58 -114 55 -304 179 -331 215
-12 17 -36 29 -47 25z"/>
                <path d="M4158 2523 c7 -3 16 -2 19 1 4 3 -2 6 -13 5 -11 0 -14 -3 -6 -6z"/>
                <path d="M6968 3614 c-3 -3 -26 -7 -49 -9 -24 -1 -45 -8 -47 -14 -2 -6 3 -11
11 -11 9 0 23 -3 33 -7 10 -3 15 -2 12 3 -6 9 176 20 305 18 36 0 56 4 54 10
-4 12 -308 21 -319 10z"/>
                <path d="M2430 2776 c0 -2 7 -7 16 -10 8 -3 12 -2 9 4 -6 10 -25 14 -25 6z"/>
                <path d="M6438 2533 c7 -3 16 -2 19 1 4 3 -2 6 -13 5 -11 0 -14 -3 -6 -6z"/>
        </g>
        <text x="1500" y="520" font-family="Arial black" font-size="250" fill="#6A5ACD" text-anchor="middle" alignment-baseline="middle">
        Bathic
        </text>
</svg>
